<?xml version="1.0" encoding="utf-8"?>
<!-- Generator: Adobe Illustrator 27.5.0, SVG Export Plug-In . SVG Version: 6.00 Build 0)  -->
<svg version="1.1" xmlns="http://www.w3.org/2000/svg" xmlns:xlink="http://www.w3.org/1999/xlink" x="0px" y="0px"
	 viewBox="0 0 3710 3710" style="enable-background:new 0 0 3710 3710;" xml:space="preserve">
<g id="Background">
	<g>
		<g>
			<rect style="fill:#FFFFFF;" width="3710" height="3710"/>
		</g>
	</g>
</g>
<g id="Illustration">
	<g>
		<linearGradient id="SVGID_1_" gradientUnits="userSpaceOnUse" x1="3456.896" y1="3256.5454" x2="1405.3978" y2="1461.4858">
			<stop  offset="0" style="stop-color:#DAE3FE"/>
			<stop  offset="1" style="stop-color:#E9EFFD"/>
		</linearGradient>
		<path style="fill:url(#SVGID_1_);" d="M3108.248,2324.291c-265.136,624.289-971.397,974.02-1583.869,879.681
			c-99.661-15.351-372.886-61.079-614.789-276.806c-465.679-415.291-565.268-1237.62-189.619-1817.136
			C993.378,688.246,1483.487,449.15,1949.187,461.11c100.312,2.576,484.748,18.453,822.601,297.039
			c49.624,40.919,159.074,138.153,257.716,292.41C3261.131,1412.78,3281.041,1917.434,3108.248,2324.291z"/>
		<g>
			<g>
				
					<linearGradient id="SVGID_00000007411739532581272540000015849921867174896281_" gradientUnits="userSpaceOnUse" x1="1282.8523" y1="1748.6533" x2="1202.0151" y2="788.7225">
					<stop  offset="0" style="stop-color:#FEBBBA"/>
					<stop  offset="1" style="stop-color:#FF928E"/>
				</linearGradient>
				<path style="fill:url(#SVGID_00000007411739532581272540000015849921867174896281_);" d="M1666.927,1702.255
					c-0.296-15.837-13.13-28.869-28.861-28.869h-594.598c-15.942,0-31.598,13.712-31.598,29.764V3137.9
					c0,7.722,4.419,15.128,9.848,20.581c5.431,5.452,13.476,8.505,21.145,8.484l621.685-1.708c7.736-0.021,15.31-3.169,20.721-8.735
					c5.411-5.567,8.462-13.262,8.316-21.05L1666.927,1702.255z"/>
				<g style="opacity:0.5;">
					<g>
						<polygon style="fill:#FFFFFF;" points="1229.036,1842.454 1059.648,1842.225 1058.304,1754.802 1227.857,1754.802 						"/>
						<polygon style="fill:#FFFFFF;" points="1418.901,1842.411 1249.683,1842.182 1248.524,1754.802 1417.906,1754.802 						"/>
						<polygon style="fill:#FFFFFF;" points="1608.575,1842.366 1439.527,1842.138 1438.552,1754.802 1607.764,1754.802 						"/>
					</g>
					<g>
						<polygon style="fill:#FFFFFF;" points="1231.153,1999.377 1062.06,1999.485 1060.721,1912.633 1229.978,1912.562 						"/>
						<polygon style="fill:#FFFFFF;" points="1420.687,1999.254 1251.764,1999.363 1250.609,1912.554 1419.696,1912.483 						"/>
						<g>
							<polygon style="fill:#FFFFFF;" points="1610.031,1999.132 1441.277,1999.241 1440.305,1912.475 1609.223,1912.405 							"/>
						</g>
					</g>
					<g>
						<polygon style="fill:#FFFFFF;" points="1233.263,2155.221 1064.464,2155.399 1063.13,2068.847 1232.092,2068.707 						"/>
						<polygon style="fill:#FFFFFF;" points="1422.467,2155.02 1253.838,2155.198 1252.687,2068.69 1421.479,2068.551 						"/>
						<polygon style="fill:#FFFFFF;" points="1611.482,2154.82 1443.022,2154.999 1442.053,2068.533 1610.676,2068.393 						"/>
					</g>
					<g>
						<polygon style="fill:#FFFFFF;" points="1235.365,2310.524 1066.859,2310.772 1065.53,2224.52 1234.198,2224.311 						"/>
						<polygon style="fill:#FFFFFF;" points="1424.241,2310.247 1255.904,2310.494 1254.757,2224.285 1423.256,2224.076 						"/>
						<polygon style="fill:#FFFFFF;" points="1612.928,2309.97 1444.76,2310.217 1443.795,2224.051 1612.125,2223.842 						"/>
					</g>
					<g>
						<polygon style="fill:#FFFFFF;" points="1237.46,2465.292 1069.246,2465.609 1067.922,2379.655 1236.297,2379.376 						"/>
						<polygon style="fill:#FFFFFF;" points="1426.009,2464.938 1257.963,2465.254 1256.82,2379.342 1425.027,2379.064 						"/>
						<polygon style="fill:#FFFFFF;" points="1614.37,2464.584 1446.491,2464.9 1445.53,2379.031 1613.569,2378.753 						"/>
					</g>
					<g>
						<polygon style="fill:#FFFFFF;" points="1239.547,2619.526 1071.626,2619.91 1070.305,2534.253 1238.389,2533.906 						"/>
						<polygon style="fill:#FFFFFF;" points="1427.77,2619.096 1260.016,2619.479 1258.876,2533.864 1426.792,2533.518 						"/>
						<polygon style="fill:#FFFFFF;" points="1615.805,2618.665 1448.218,2619.049 1447.26,2533.476 1615.008,2533.131 						"/>
					</g>
					<g>
						<polygon style="fill:#FFFFFF;" points="1241.628,2773.229 1073.996,2773.68 1072.68,2688.318 1240.473,2687.904 						"/>
						<polygon style="fill:#FFFFFF;" points="1429.526,2772.722 1262.061,2773.174 1260.926,2687.853 1428.551,2687.439 						"/>
						<polygon style="fill:#FFFFFF;" points="1617.237,2772.217 1449.939,2772.667 1448.983,2687.389 1616.442,2686.976 						"/>
					</g>
					<g>
						<polygon style="fill:#FFFFFF;" points="1243.701,2926.402 1076.359,2926.921 1075.047,2841.852 1242.551,2841.371 						"/>
						<polygon style="fill:#FFFFFF;" points="1431.275,2925.821 1264.099,2926.339 1262.967,2841.312 1430.304,2840.831 						"/>
						<polygon style="fill:#FFFFFF;" points="1618.663,2925.24 1451.653,2925.758 1450.701,2840.773 1617.871,2840.292 						"/>
					</g>
					<g>
						<polygon style="fill:#FFFFFF;" points="1245.768,3079.051 1078.713,3079.636 1077.406,2994.86 1244.62,2994.311 						"/>
						<polygon style="fill:#FFFFFF;" points="1433.019,3078.395 1266.13,3078.979 1265.002,2994.244 1432.051,2993.697 						"/>
						<polygon style="fill:#FFFFFF;" points="1620.084,3077.74 1453.361,3078.323 1452.412,2993.63 1619.295,2993.082 						"/>
					</g>
				</g>
			</g>
			<g>
				
					<linearGradient id="SVGID_00000182492800492223116230000010078174424167879567_" gradientUnits="userSpaceOnUse" x1="872.5884" y1="2613.77" x2="283.1581" y2="3297.5093">
					<stop  offset="0" style="stop-color:#FF928E"/>
					<stop  offset="1" style="stop-color:#FE7062"/>
				</linearGradient>
				<path style="fill:url(#SVGID_00000182492800492223116230000010078174424167879567_);" d="M1282.07,2023.612
					c-0.365-12.476-16.223-22.744-35.662-22.744H511.703c-19.698,0-39.044,10.802-39.044,23.45v1130.363
					c0,6.084,5.46,11.918,12.169,16.214c6.711,4.296,16.651,6.701,26.128,6.685l768.175-1.346
					c9.559-0.017,18.917-2.496,25.604-6.882c6.686-4.386,10.456-10.448,10.276-16.584L1282.07,2023.612z"/>
				<g style="opacity:0.5;">
					<g>
						<polygon style="fill:#FFFFFF;" points="740.998,2134.067 531.696,2133.887 530.036,2065.01 739.541,2065.01 						"/>
						<polygon style="fill:#FFFFFF;" points="975.601,2134.033 766.509,2133.852 765.077,2065.01 974.372,2065.01 						"/>
						<polygon style="fill:#FFFFFF;" points="1209.968,2133.998 1001.087,2133.818 999.883,2065.01 1208.966,2065.01 						"/>
					</g>
					<g>
						<polygon style="fill:#FFFFFF;" points="743.613,2257.698 534.676,2257.784 533.022,2189.357 742.161,2189.302 						"/>
						<polygon style="fill:#FFFFFF;" points="977.808,2257.602 769.081,2257.688 767.653,2189.295 976.583,2189.24 						"/>
						<polygon style="fill:#FFFFFF;" points="1211.768,2257.506 1003.25,2257.591 1002.049,2189.233 1210.769,2189.178 						"/>
					</g>
					<g>
						<polygon style="fill:#FFFFFF;" points="746.221,2380.479 537.647,2380.62 535.998,2312.43 744.773,2312.32 						"/>
						<polygon style="fill:#FFFFFF;" points="980.007,2380.322 771.643,2380.462 770.221,2312.307 978.786,2312.197 						"/>
						<polygon style="fill:#FFFFFF;" points="1213.56,2380.164 1005.405,2380.305 1004.208,2312.183 1212.566,2312.073 						"/>
					</g>
					<g>
						<polygon style="fill:#FFFFFF;" points="748.818,2502.835 540.607,2503.031 538.964,2435.077 747.375,2434.912 						"/>
						<polygon style="fill:#FFFFFF;" points="982.2,2502.616 774.196,2502.811 772.779,2434.892 980.983,2434.727 						"/>
						<polygon style="fill:#FFFFFF;" points="1215.348,2502.399 1007.553,2502.593 1006.361,2434.707 1214.356,2434.543 						"/>
					</g>
					<g>
						<polygon style="fill:#FFFFFF;" points="751.406,2624.769 543.556,2625.018 541.919,2557.299 749.969,2557.08 						"/>
						<polygon style="fill:#FFFFFF;" points="984.383,2624.489 776.741,2624.739 775.329,2557.053 983.171,2556.834 						"/>
						<polygon style="fill:#FFFFFF;" points="1217.129,2624.211 1009.693,2624.459 1008.505,2556.808 1216.14,2556.589 						"/>
					</g>
					<g>
						<polygon style="fill:#FFFFFF;" points="753.986,2746.281 546.496,2746.584 544.864,2679.099 752.554,2678.826 						"/>
						<polygon style="fill:#FFFFFF;" points="986.56,2745.942 779.278,2746.244 777.869,2678.792 985.352,2678.52 						"/>
						<polygon style="fill:#FFFFFF;" points="1218.903,2745.603 1011.826,2745.905 1010.642,2678.487 1217.918,2678.215 						"/>
					</g>
					<g>
						<polygon style="fill:#FFFFFF;" points="756.557,2867.375 549.425,2867.731 547.799,2800.479 755.129,2800.153 						"/>
						<polygon style="fill:#FFFFFF;" points="988.73,2866.976 781.804,2867.332 780.401,2800.112 987.525,2799.787 						"/>
						<polygon style="fill:#FFFFFF;" points="1220.672,2866.578 1013.952,2866.933 1012.771,2799.747 1219.69,2799.421 						"/>
					</g>
					<g>
						<polygon style="fill:#FFFFFF;" points="759.118,2988.053 552.344,2988.462 550.724,2921.441 757.697,2921.061 						"/>
						<polygon style="fill:#FFFFFF;" points="990.892,2987.595 784.322,2988.003 782.924,2921.014 989.692,2920.636 						"/>
						<polygon style="fill:#FFFFFF;" points="1222.434,2987.137 1016.07,2987.545 1014.894,2920.59 1221.455,2920.211 						"/>
					</g>
					<g>
						<polygon style="fill:#FFFFFF;" points="761.672,3108.317 555.254,3108.778 553.639,3041.987 760.254,3041.555 						"/>
						<polygon style="fill:#FFFFFF;" points="993.046,3107.799 786.832,3108.26 785.438,3041.502 991.849,3041.07 						"/>
						<polygon style="fill:#FFFFFF;" points="1224.19,3107.283 1018.181,3107.744 1017.009,3041.018 1223.215,3040.586 						"/>
					</g>
				</g>
			</g>
			<g>
				
					<linearGradient id="SVGID_00000048501201342056365540000006594400496463251363_" gradientUnits="userSpaceOnUse" x1="1974.9799" y1="2544.4106" x2="1355.2365" y2="3487.4995">
					<stop  offset="0" style="stop-color:#FF928E"/>
					<stop  offset="1" style="stop-color:#FE7062"/>
				</linearGradient>
				<path style="fill:url(#SVGID_00000048501201342056365540000006594400496463251363_);" d="M2248.051,2233.27
					c-0.223-6.488-9.993-11.709-21.966-11.709h-726.238c-12.135,0-25.023,5.382-25.023,11.958v918.673
					c0,4.909,5.131,9.616,11.544,13.083c6.413,3.467,15.871,5.407,24.929,5.394l734.192-1.086c9.136-0.014,18.07-2.015,24.46-5.553
					c6.391-3.539,9.988-8.333,9.817-13.284L2248.051,2233.27z"/>
				<g style="opacity:0.77;">
					<polygon style="fill:#FFFFFF;" points="1830.982,2286.665 1593.413,2286.219 1593.501,2270.108 1830.805,2270.515 					"/>
					<polygon style="fill:#FFFFFF;" points="1831.634,2346.008 1593.087,2345.418 1593.177,2329.175 1831.455,2329.725 					"/>
					<polygon style="fill:#FFFFFF;" points="1832.29,2405.842 1592.759,2405.105 1592.849,2388.727 1832.11,2389.424 					"/>
					<polygon style="fill:#FFFFFF;" points="1832.952,2466.173 1592.428,2465.287 1592.519,2448.773 1832.771,2449.618 					"/>
					<polygon style="fill:#FFFFFF;" points="1833.62,2527.006 1592.094,2525.969 1592.186,2509.317 1833.437,2510.313 					"/>
					<polygon style="fill:#FFFFFF;" points="1834.972,2650.206 1591.419,2648.857 1591.511,2631.926 1834.786,2633.231 					"/>
					<polygon style="fill:#FFFFFF;" points="1837.044,2838.938 1590.383,2837.104 1590.479,2819.739 1836.853,2821.527 					"/>
					<polygon style="fill:#FFFFFF;" points="1834.293,2588.348 1591.758,2587.156 1591.85,2570.366 1834.108,2571.515 					"/>
					<polygon style="fill:#FFFFFF;" points="1835.656,2712.586 1591.076,2711.079 1591.171,2694.005 1835.469,2695.468 					"/>
					<polygon style="fill:#FFFFFF;" points="1836.347,2775.494 1590.731,2773.825 1590.826,2756.606 1836.158,2758.231 					"/>
					<polygon style="fill:#FFFFFF;" points="1837.746,2902.924 1590.032,2900.922 1590.128,2883.409 1837.552,2885.364 					"/>
					<polygon style="fill:#FFFFFF;" points="1838.454,2967.458 1589.678,2965.286 1589.776,2947.623 1838.26,2949.748 					"/>
					<polygon style="fill:#FFFFFF;" points="1839.169,3032.551 1589.322,3030.206 1589.419,3012.391 1838.972,3014.688 					"/>
					<polygon style="fill:#FFFFFF;" points="1839.889,3098.205 1588.962,3095.685 1589.06,3077.715 1839.691,3080.188 					"/>
					<polygon style="fill:#FFFFFF;" points="2142.453,2287.249 1903.393,2286.801 1903.135,2270.639 2141.926,2271.048 					"/>
					<polygon style="fill:#FFFFFF;" points="2144.393,2346.782 1904.344,2346.188 1904.083,2329.892 2143.861,2330.446 					"/>
					<polygon style="fill:#FFFFFF;" points="2146.348,2406.808 1905.301,2406.066 1905.039,2389.636 2145.811,2390.337 					"/>
					<polygon style="fill:#FFFFFF;" points="2148.32,2467.335 1906.267,2466.443 1906.002,2449.876 2147.778,2450.726 					"/>
					<polygon style="fill:#FFFFFF;" points="2150.307,2528.366 1907.242,2527.322 1906.974,2510.617 2149.762,2511.619 					"/>
					<polygon style="fill:#FFFFFF;" points="2154.334,2651.973 1909.213,2650.616 1908.942,2633.629 2153.779,2634.942 					"/>
					<polygon style="fill:#FFFFFF;" points="2160.502,2841.343 1912.235,2839.497 1911.956,2822.073 2159.933,2823.873 					"/>
					<polygon style="fill:#FFFFFF;" points="2152.312,2589.911 1908.223,2588.711 1907.954,2571.866 2151.762,2573.022 					"/>
					<polygon style="fill:#FFFFFF;" points="2156.372,2714.563 1910.212,2713.045 1909.938,2695.914 2155.813,2697.388 					"/>
					<polygon style="fill:#FFFFFF;" points="2158.428,2777.683 1911.219,2776.003 1910.942,2758.727 2157.864,2760.362 					"/>
					<polygon style="fill:#FFFFFF;" points="2162.593,2905.548 1913.259,2903.533 1912.978,2885.96 2162.02,2887.928 					"/>
					<polygon style="fill:#FFFFFF;" points="2164.703,2970.306 1914.292,2968.12 1914.009,2950.396 2164.123,2952.535 					"/>
					<polygon style="fill:#FFFFFF;" points="2166.831,3035.625 1915.334,3033.265 1915.048,3015.388 2166.246,3017.7 					"/>
					<polygon style="fill:#FFFFFF;" points="2168.976,3101.511 1916.386,3098.974 1916.097,3080.941 2168.387,3083.429 					"/>
				</g>
			</g>
		</g>
		<g>
			
				<linearGradient id="SVGID_00000036232686723040943400000009898559482230090687_" gradientUnits="userSpaceOnUse" x1="1384.5283" y1="2790.6692" x2="845.8951" y2="3584.4443">
				<stop  offset="0" style="stop-color:#09005D"/>
				<stop  offset="1" style="stop-color:#1A0F91"/>
			</linearGradient>
			<path style="fill:url(#SVGID_00000036232686723040943400000009898559482230090687_);" d="M1830.179,3202.658
				c-417.396,57.8-848.699,58.444-1295.397-4.186c-54.434-7.633-89.742-61.434-74.941-114.371l24.951-89.238
				c7.793-27.87,32.18-47.947,61.035-50.15c438.899-33.499,867.653-48.478,1267.365-10.449
				c26.945,2.563,50.314,19.675,60.686,44.675l35.573,85.754C1934.696,3125.549,1895.441,3193.621,1830.179,3202.658z"/>
			
				<linearGradient id="SVGID_00000167374046308632360740000014253604731446265730_" gradientUnits="userSpaceOnUse" x1="1185.5781" y1="1721.8036" x2="1420.4608" y2="1721.8036">
				<stop  offset="0" style="stop-color:#09005D"/>
				<stop  offset="1" style="stop-color:#1A0F91"/>
			</linearGradient>
			<path style="fill:url(#SVGID_00000167374046308632360740000014253604731446265730_);" d="M1185.578,1423.128l120.5,605.298
				c1.531,7.693,7.478,13.745,15.156,15.346c17.694,3.694,51.701,6.092,89.375-15.867c7.261-4.232,11.109-12.555,9.483-20.801
				l-120.259-609.683L1185.578,1423.128z"/>
			
				<linearGradient id="SVGID_00000024714067708300864230000013356533054937421230_" gradientUnits="userSpaceOnUse" x1="1557.3414" y1="2503.8076" x2="1528.9924" y2="2407.4209">
				<stop  offset="0" style="stop-color:#4F52FF"/>
				<stop  offset="1" style="stop-color:#4042E2"/>
			</linearGradient>
			<path style="fill:url(#SVGID_00000024714067708300864230000013356533054937421230_);" d="M1073.809,1028.811l186.6,937.339
				c2.371,11.912,11.579,21.282,23.468,23.764c27.402,5.719,80.064,9.433,138.403-24.571c11.244-6.553,17.204-19.443,14.684-32.211
				l-186.226-944.129L1073.809,1028.811z"/>
			
				<linearGradient id="SVGID_00000160907938737521910680000007703232202932080028_" gradientUnits="userSpaceOnUse" x1="1618.9969" y1="701.6245" x2="2194.9268" y2="-217.8438">
				<stop  offset="0" style="stop-color:#4F52FF"/>
				<stop  offset="1" style="stop-color:#4042E2"/>
			</linearGradient>
			<path style="fill:url(#SVGID_00000160907938737521910680000007703232202932080028_);" d="M992.641,804.171l221.717,1084.626
				c3.197,16.056,15.61,28.687,31.636,32.033c36.935,7.708,107.922,12.715,186.561-33.121c15.155-8.834,23.188-26.209,19.794-43.42
				L1231.133,750.51L992.641,804.171z"/>
			
				<linearGradient id="SVGID_00000072973721442378782470000008853677938900989593_" gradientUnits="userSpaceOnUse" x1="1057.4006" y1="1108.5914" x2="1165.1261" y2="405.5384">
				<stop  offset="0" style="stop-color:#09005D"/>
				<stop  offset="1" style="stop-color:#1A0F91"/>
			</linearGradient>
			<path style="fill:url(#SVGID_00000072973721442378782470000008853677938900989593_);" d="M971.513,800.722l7.132,12.836
				c4.781,8.608,14.594,13.119,24.242,11.146l228.095-46.656c10.499-2.147,18.039-11.385,18.039-22.102v-18.987
				c0-14.452-13.4-25.177-27.502-22.012l-235.226,52.806C971.596,771.053,964.197,787.554,971.513,800.722z"/>
			
				<linearGradient id="SVGID_00000031196851640606254190000013539446414138513304_" gradientUnits="userSpaceOnUse" x1="1841.5247" y1="2385.7859" x2="1548.5081" y2="1789.6489">
				<stop  offset="0" style="stop-color:#4F52FF"/>
				<stop  offset="1" style="stop-color:#4042E2"/>
			</linearGradient>
			<path style="fill:url(#SVGID_00000031196851640606254190000013539446414138513304_);" d="M1037.198,998.875l238.854-48.372
				l18.407,1.54c8.767,0.733,16.462,6.123,20.146,14.111l0,0c0,10.789-4.396,21.112-12.174,28.588l-14.841,14.263l-238.749,48.355
				l-31.359-12.029c-4.474-1.716-8.143-5.044-10.285-9.329l0,0c-4.765-9.529-0.987-21.117,8.478-26.007L1037.198,998.875z"/>
			
				<linearGradient id="SVGID_00000109727875693745141740000010108737247899077545_" gradientUnits="userSpaceOnUse" x1="616.9429" y1="1975.6255" x2="1448.7576" y2="1975.6255">
				<stop  offset="0" style="stop-color:#09005D"/>
				<stop  offset="1" style="stop-color:#1A0F91"/>
			</linearGradient>
			<path style="fill:url(#SVGID_00000109727875693745141740000010108737247899077545_);" d="M1061.208,1468.969l-31.645-268.986
				c-2.323-19.744,11.066-37.906,30.615-41.526l253.42-46.93c18.616-3.448,36.468,8.953,39.735,27.6l95.425,544.484
				c0,0-155.02,65.586-351.777,65.586c0,0-35.773-77.51-89.434-71.548c-53.661,5.962-220.606,77.51-190.794,411.399
				c29.812,333.889,268.303,292.153,268.303,292.153l101.359,459.099c0,0-515.822-89.684-566.418-661.817
				c-31.235-353.189,185.391-578.576,270.641-652.75c19.937-17.346,44.01-29.251,69.833-34.865L1061.208,1468.969z"/>
			
				<linearGradient id="SVGID_00000095319840623207269650000001452065693239600550_" gradientUnits="userSpaceOnUse" x1="883.4669" y1="3116.0354" x2="1200.9757" y2="2549.0547">
				<stop  offset="0" style="stop-color:#4F52FF"/>
				<stop  offset="1" style="stop-color:#4042E2"/>
			</linearGradient>
			<path style="fill:url(#SVGID_00000095319840623207269650000001452065693239600550_);" d="M813.584,2930.299l92.019-346.172
				c12.648-47.579,55.721-80.699,104.953-80.699h54.212c48.836,0,91.433,33.168,103.405,80.514l87.676,346.771
				c5.611,22.193-11.165,43.739-34.056,43.739h-374.26C824.464,2974.451,807.658,2952.594,813.584,2930.299z"/>
			
				<linearGradient id="SVGID_00000150823455936592388480000000587282903915631232_" gradientUnits="userSpaceOnUse" x1="1222.5199" y1="2406.0601" x2="678.2191" y2="3148.8032">
				<stop  offset="0" style="stop-color:#09005D"/>
				<stop  offset="1" style="stop-color:#1A0F91"/>
			</linearGradient>
			<path style="fill:url(#SVGID_00000150823455936592388480000000587282903915631232_);" d="M1123.812,2646.524
				c0,42.808-34.703,77.51-77.51,77.51c-42.807,0-77.509-34.703-77.509-77.51s34.702-77.51,77.509-77.51
				C1089.109,2569.014,1123.812,2603.717,1123.812,2646.524z"/>
			
				<linearGradient id="SVGID_00000097482938137791310870000014505415378415023500_" gradientUnits="userSpaceOnUse" x1="1465.7976" y1="2839.6851" x2="1438.0768" y2="2481.8386">
				<stop  offset="0" style="stop-color:#09005D"/>
				<stop  offset="1" style="stop-color:#1A0F91"/>
			</linearGradient>
			<path style="fill:url(#SVGID_00000097482938137791310870000014505415378415023500_);" d="M1788.302,2342.446
				c-69.639-56.876-203.571-95.396-357.431-95.396c-153.86,0-287.792,38.52-357.43,95.396h-50.988v89.435
				c0,102.08,182.855,184.833,408.418,184.833c225.563,0,408.418-82.752,408.418-184.833v-89.435H1788.302z"/>
			
				<linearGradient id="SVGID_00000060013030019844116060000016385157290453528960_" gradientUnits="userSpaceOnUse" x1="1414.7316" y1="2541.9807" x2="1442.4524" y2="2199.2546">
				<stop  offset="0" style="stop-color:#09005D"/>
				<stop  offset="1" style="stop-color:#1A0F91"/>
			</linearGradient>
			
				<ellipse style="fill:url(#SVGID_00000060013030019844116060000016385157290453528960_);" cx="1430.871" cy="2342.446" rx="408.418" ry="184.832"/>
			<ellipse style="fill:#91B3FA;" cx="1430.871" cy="2339.465" rx="342.833" ry="140.114"/>
			
				<linearGradient id="SVGID_00000131351311094532405630000015173581382929807492_" gradientUnits="userSpaceOnUse" x1="1442.9302" y1="2128.2898" x2="1431.5906" y2="2326.7319">
				<stop  offset="0" style="stop-color:#4F52FF"/>
				<stop  offset="1" style="stop-color:#4042E2"/>
			</linearGradient>
			<path style="fill:url(#SVGID_00000131351311094532405630000015173581382929807492_);" d="M1430.871,2223.2
				c179.504,0,326.691,56.394,341.51,128.19c0.812-3.934,1.323-7.904,1.323-11.925c0-77.383-153.492-140.114-342.833-140.114
				s-342.832,62.731-342.832,140.114c0,4.021,0.51,7.99,1.323,11.925C1104.181,2279.594,1251.367,2223.2,1430.871,2223.2z"/>
			
				<linearGradient id="SVGID_00000155148587237265503350000001000190919467521666_" gradientUnits="userSpaceOnUse" x1="924.0749" y1="1385.496" x2="1216.2275" y2="1385.496">
				<stop  offset="0" style="stop-color:#4F52FF"/>
				<stop  offset="1" style="stop-color:#4042E2"/>
			</linearGradient>
			
				<ellipse style="fill:url(#SVGID_00000155148587237265503350000001000190919467521666_);" cx="1070.151" cy="1385.496" rx="146.076" ry="137.133"/>
			
				<linearGradient id="SVGID_00000114049373342200423230000002263863349371458750_" gradientUnits="userSpaceOnUse" x1="971.7729" y1="1394.4395" x2="1168.5289" y2="1394.4395">
				<stop  offset="0" style="stop-color:#09005D"/>
				<stop  offset="1" style="stop-color:#1A0F91"/>
			</linearGradient>
			
				<circle style="fill:url(#SVGID_00000114049373342200423230000002263863349371458750_);" cx="1070.151" cy="1394.439" r="98.378"/>
			<path style="fill:#BDD0FB;" d="M1592.303,3060.478c-4.023,0-7.594-2.862-8.345-6.96c-0.851-4.613,2.206-9.042,6.818-9.888
				c23.431-4.298,46.766-9.1,69.354-14.268c4.607-1.07,9.129,1.817,10.174,6.388c1.05,4.571-1.813,9.125-6.383,10.17
				c-22.829,5.227-46.404,10.079-70.076,14.418C1593.327,3060.436,1592.809,3060.478,1592.303,3060.478z"/>
			<path style="fill:#BDD0FB;" d="M1210.077,3092.854c-364.427,0-668.946-76.234-672.828-77.221
				c-4.545-1.153-7.292-5.782-6.134-10.328c1.157-4.537,5.761-7.275,10.332-6.13c4.927,1.253,498.58,124.762,979.943,55.769
				c4.654-0.606,8.951,2.564,9.614,7.209c0.668,4.645-2.559,8.942-7.2,9.614C1418.079,3086.914,1311.72,3092.854,1210.077,3092.854z
				"/>
			<path style="fill:#BDD0FB;" d="M1403.081,1641.847c-4.077,0-7.673-2.937-8.37-7.085l-7.279-43.36
				c-0.776-4.629,2.343-9.009,6.972-9.789c4.667-0.705,9.009,2.348,9.785,6.969l7.279,43.359c0.775,4.629-2.343,9.009-6.972,9.789
				C1404.018,1641.805,1403.546,1641.847,1403.081,1641.847z"/>
			<path style="fill:#BDD0FB;" d="M1383.86,1527.395c-4.073,0-7.673-2.937-8.37-7.084l-61.212-364.489
				c-0.763-4.562-4.981-7.699-9.519-7.009l-25.263,3.442c-4.695,0.547-8.935-2.621-9.565-7.275
				c-0.634-4.645,2.622-8.926,7.267-9.565l25.259-3.442c13.799-1.826,26.284,7.365,28.578,21.037l61.211,364.482
				c0.776,4.629-2.342,9.009-6.972,9.789C1384.798,1527.354,1384.325,1527.395,1383.86,1527.395z"/>
		</g>
		<g>
			<g>
				
					<linearGradient id="SVGID_00000124877478918351199470000006125415232239998342_" gradientUnits="userSpaceOnUse" x1="2294.3804" y1="866.7726" x2="1544.0725" y2="2309.3298">
					<stop  offset="0" style="stop-color:#4F52FF"/>
					<stop  offset="1" style="stop-color:#4042E2"/>
				</linearGradient>
				
					<circle style="fill:url(#SVGID_00000124877478918351199470000006125415232239998342_);" cx="2054.442" cy="1328.084" r="489.16"/>
				
					<linearGradient id="SVGID_00000036961894021021950930000002253898509653197997_" gradientUnits="userSpaceOnUse" x1="2411.9385" y1="788.0084" x2="471.7806" y2="3719.0337">
					<stop  offset="0" style="stop-color:#4F52FF"/>
					<stop  offset="1" style="stop-color:#4042E2"/>
				</linearGradient>
				
					<circle style="fill:url(#SVGID_00000036961894021021950930000002253898509653197997_);" cx="2054.442" cy="1328.084" r="472.894"/>
				<path style="fill:#BDD0FB;" d="M1618.516,1309.913c-0.089,0-0.179,0-0.266-0.005c-2.757-0.146-4.872-2.497-4.728-5.25
					c0.971-18.579,3.13-37.235,6.419-55.459c0.487-2.713,3.068-4.518,5.803-4.031c2.716,0.493,4.518,3.089,4.027,5.806
					c-3.21,17.808-5.32,36.046-6.272,54.201C1623.36,1307.844,1621.155,1309.913,1618.516,1309.913z"/>
				<path style="fill:#BDD0FB;" d="M1664.495,1136.637c-0.756,0-1.525-0.171-2.247-0.537c-2.464-1.244-3.452-4.25-2.208-6.709
					c75.607-149.789,226.733-242.84,394.403-242.84c26.74,0,53.537,2.41,79.647,7.173c2.715,0.492,4.515,3.093,4.021,5.81
					c-0.493,2.718-3.087,4.533-5.812,4.015c-25.521-4.649-51.714-7.005-77.856-7.005c-163.877,0-311.584,90.948-385.484,237.346
					C1668.08,1135.631,1666.322,1136.637,1664.495,1136.637z"/>
				
					<ellipse transform="matrix(0.7071 -0.7071 0.7071 0.7071 -341.6328 1851.9999)" style="fill:#BDD0FB;" cx="2064.745" cy="1338.387" rx="400.247" ry="400.247"/>
			</g>
			<g>
				<g>
					
						<linearGradient id="SVGID_00000174580100515589831630000002783090714634567333_" gradientUnits="userSpaceOnUse" x1="2472.928" y1="938.1855" x2="2605.8591" y2="938.1855" gradientTransform="matrix(0.9176 0.3975 -0.3975 0.9176 314.8029 -518.2035)">
						<stop  offset="0" style="stop-color:#E1473D"/>
						<stop  offset="1" style="stop-color:#E9605A"/>
					</linearGradient>
					<path style="fill:url(#SVGID_00000174580100515589831630000002783090714634567333_);" d="M2341.275,1310.451
						c-6.258-15.825-18.567-29.251-35.393-36.54c-33.685-14.591-72.815,0.885-87.406,34.57l-36.673,84.662
						c8.217,4.046,14.923,10.874,18.065,20.528c6.57,0.237,13.24,1.437,19.689,3.635c20.667,7.039,43.184,20.311,64.579,23.054
						c6.788,0.872,13.373,3.197,19.214,6.611l37.101-85.655C2347.741,1344.488,2347.534,1326.272,2341.275,1310.451z"/>
					
						<linearGradient id="SVGID_00000177463839564151696400000005820814615313765795_" gradientUnits="userSpaceOnUse" x1="1812.8567" y1="774.5532" x2="2511.6975" y2="1979.2734">
						<stop  offset="0" style="stop-color:#4F52FF"/>
						<stop  offset="1" style="stop-color:#4042E2"/>
					</linearGradient>
					<path style="fill:url(#SVGID_00000177463839564151696400000005820814615313765795_);" d="M2304.552,1444.196l-35.9,82.881
						c-14.59,33.684-53.721,49.161-87.405,34.571c-16.827-7.288-29.136-20.718-35.394-36.54
						c-6.258-15.823-6.465-34.038,0.823-50.865l35.9-82.881L2304.552,1444.196z"/>
				</g>
				<g>
					
						<linearGradient id="SVGID_00000155845463309739068650000003824895833563505057_" gradientUnits="userSpaceOnUse" x1="976.4226" y1="-689.0002" x2="1109.3542" y2="-689.0002" gradientTransform="matrix(0.0273 0.9996 -0.9996 0.0273 1414.1205 115.0773)">
						<stop  offset="0" style="stop-color:#E1473D"/>
						<stop  offset="1" style="stop-color:#E9605A"/>
					</linearGradient>
					<path style="fill:url(#SVGID_00000155845463309739068650000003824895833563505057_);" d="M2145.001,1071.876l-93.811,2.562
						v132.977l97.442-2.661c18.33-0.503,34.754-8.384,46.452-20.739c11.699-12.358,18.672-29.185,18.171-47.516
						C2212.253,1099.805,2181.696,1070.873,2145.001,1071.876z"/>
					
						<linearGradient id="SVGID_00000067922178764501136510000014217699855227392689_" gradientUnits="userSpaceOnUse" x1="1786.8967" y1="789.612" x2="2485.738" y2="1994.3329">
						<stop  offset="0" style="stop-color:#4F52FF"/>
						<stop  offset="1" style="stop-color:#4042E2"/>
					</linearGradient>
					<path style="fill:url(#SVGID_00000067922178764501136510000014217699855227392689_);" d="M2058.344,1207.22l-90.288,2.467
						c-36.695,1.002-67.251-27.929-68.254-64.624c-0.501-18.33,6.472-35.16,18.171-47.515
						c11.698-12.356,28.122-20.237,46.452-20.739l90.289-2.467L2058.344,1207.22z"/>
				</g>
				<g>
					
						<linearGradient id="SVGID_00000124123426312820203980000008819311060913641889_" gradientUnits="userSpaceOnUse" x1="1083.9318" y1="-2114.5105" x2="1216.8589" y2="-2114.5105" gradientTransform="matrix(-0.412 0.9112 -0.9112 -0.412 523.6428 -409.5404)">
						<stop  offset="0" style="stop-color:#E1473D"/>
						<stop  offset="1" style="stop-color:#E9605A"/>
					</linearGradient>
					<path style="fill:url(#SVGID_00000124123426312820203980000008819311060913641889_);" d="M2021.401,1457.272l-84.801-38.339
						c-0.338,0.674-0.653,1.365-1.034,2.016c-5.039,8.615-12.443,14.265-20.809,17.114c-7.866,26.422-17.789,52.296-30.473,76.758
						c-0.157,0.303-0.354,0.572-0.52,0.868c2.425,9.187,1.478,17.463-1.763,24.439l84.639,38.267
						c16.709,7.555,34.926,7.638,50.847,1.632c15.919-6.009,29.542-18.104,37.096-34.813
						C2069.704,1511.765,2054.85,1472.396,2021.401,1457.272z"/>
					
						<linearGradient id="SVGID_00000008115505504447968660000004718033568739835069_" gradientUnits="userSpaceOnUse" x1="1552.2925" y1="925.7032" x2="2251.1335" y2="2130.4238">
						<stop  offset="0" style="stop-color:#4F52FF"/>
						<stop  offset="1" style="stop-color:#4042E2"/>
					</linearGradient>
					<path style="fill:url(#SVGID_00000008115505504447968660000004718033568739835069_);" d="M1884.338,1541.186l-82.302-37.21
						c-33.449-15.123-48.303-54.494-33.181-87.942c7.554-16.709,21.177-28.804,37.097-34.81c15.92-6.007,34.137-5.925,50.846,1.63
						l82.301,37.209L1884.338,1541.186z"/>
				</g>
			</g>
		</g>
		<g>
			
				<linearGradient id="SVGID_00000030481240452697625860000012084687991300007087_" gradientUnits="userSpaceOnUse" x1="2195.2119" y1="724.2499" x2="2403.3884" y2="482.6166" gradientTransform="matrix(0.9975 -0.07 0.07 0.9975 -286.2371 307.9282)">
				<stop  offset="0" style="stop-color:#FF928E"/>
				<stop  offset="1" style="stop-color:#FE7062"/>
			</linearGradient>
			
				<circle style="fill:url(#SVGID_00000030481240452697625860000012084687991300007087_);" cx="2148.779" cy="615.938" r="155.196"/>
			
				<linearGradient id="SVGID_00000032615198874904193170000013334433770856220805_" gradientUnits="userSpaceOnUse" x1="2521.0217" y1="306.3781" x2="1905.4381" y2="1236.3496" gradientTransform="matrix(0.9975 -0.07 0.07 0.9975 -286.2371 307.9282)">
				<stop  offset="0" style="stop-color:#FF928E"/>
				<stop  offset="1" style="stop-color:#FE7062"/>
			</linearGradient>
			
				<circle style="fill:url(#SVGID_00000032615198874904193170000013334433770856220805_);" cx="2148.779" cy="615.939" r="150.036"/>
			<path style="fill:#FFFFFF;" d="M2021.346,567.438c-0.758,0.053-1.54-0.064-2.289-0.379c-2.556-1.073-3.757-4.015-2.684-6.566
				c21.104-50.292,67.987-83.9,122.352-87.717c8.676-0.609,17.419-0.438,25.986,0.508c2.752,0.303,4.739,2.782,4.436,5.535
				c-0.302,2.757-2.768,4.762-5.538,4.436c-7.967-0.875-16.103-1.035-24.18-0.468c-50.565,3.551-94.171,34.812-113.803,81.587
				C2024.867,566.179,2023.176,567.31,2021.346,567.438z"/>
			
				<ellipse transform="matrix(0.7071 -0.7071 0.7071 0.7071 192.7067 1703.176)" style="opacity:0.78;fill:#FFFFFF;" cx="2152.269" cy="618.971" rx="126.987" ry="126.987"/>
			<g>
				
					<linearGradient id="SVGID_00000099643049981451787740000010228532417679200918_" gradientUnits="userSpaceOnUse" x1="2153.4209" y1="416.8762" x2="2153.4209" y2="686.331">
					<stop  offset="0" style="stop-color:#FF928E"/>
					<stop  offset="1" style="stop-color:#FE7062"/>
				</linearGradient>
				<path style="fill:url(#SVGID_00000099643049981451787740000010228532417679200918_);" d="M2146.45,714.015l-0.967-13.781
					c-14.407,0.434-28.856-1.959-39.259-5.669c-3.715-1.324-5.836-5.24-5.067-9.107l2.6-13.083c0.954-4.8,5.904-7.595,10.539-6.024
					c10.307,3.494,22.901,5.946,36.231,5.01c13.838-0.972,23.828-6.387,23.153-16.004c-0.609-8.677-8.946-13.276-28.54-17.086
					c-27.968-5.578-48.509-16.156-50.206-40.315c-1.532-21.813,13.248-39.585,40.611-45.984l-0.968-13.783
					c-0.311-4.435,3.031-8.283,7.466-8.594l8.098-0.568c4.434-0.311,8.282,3.032,8.594,7.466l0.869,12.375
					c13.331-0.401,23.168,1.193,31.037,3.352c4.032,1.106,6.479,5.194,5.671,9.296l-2.386,12.098
					c-0.92,4.665-5.637,7.517-10.191,6.15c-7.258-2.177-17.451-4.259-30.445-3.347c-16.418,1.153-20.631,8.284-20.203,14.382
					c0.527,7.505,10.74,11.973,32.544,17.042c31.133,7.006,44.687,18.781,46.284,41.532c1.466,20.874-12.696,40.725-42.388,47.523
					l1.083,15.423c0.312,4.435-3.031,8.282-7.466,8.594l-8.098,0.569C2150.61,721.792,2146.762,718.45,2146.45,714.015z"/>
			</g>
		</g>
		<g>
			
				<linearGradient id="SVGID_00000139974567343132266850000012733183934479445431_" gradientUnits="userSpaceOnUse" x1="2217.6775" y1="739.1949" x2="2497.2632" y2="414.6763" gradientTransform="matrix(0.9997 -0.0234 0.0234 0.9997 -66.0834 331.2042)">
				<stop  offset="0" style="stop-color:#FF928E"/>
				<stop  offset="1" style="stop-color:#FE7062"/>
			</linearGradient>
			
				<circle style="fill:url(#SVGID_00000139974567343132266850000012733183934479445431_);" cx="2445.626" cy="680.635" r="208.436"/>
			
				<linearGradient id="SVGID_00000049941508395736207760000012399135763108259463_" gradientUnits="userSpaceOnUse" x1="2655.2468" y1="177.9843" x2="1828.5054" y2="1426.955" gradientTransform="matrix(0.9997 -0.0234 0.0234 0.9997 -66.0834 331.2042)">
				<stop  offset="0" style="stop-color:#FF928E"/>
				<stop  offset="1" style="stop-color:#FE7062"/>
			</linearGradient>
			
				<circle style="fill:url(#SVGID_00000049941508395736207760000012399135763108259463_);" cx="2445.626" cy="680.635" r="201.505"/>
			<path style="fill:#FFFFFF;" d="M2277.668,605.974c-0.777,0.018-1.57-0.139-2.321-0.497c-2.561-1.219-3.649-4.283-2.43-6.839
				c31.206-65.595,95.671-107.398,168.235-109.096c11.564-0.271,23.185,0.5,34.542,2.296c2.799,0.441,4.711,3.069,4.27,5.869
				c-0.444,2.799-3.049,4.75-5.873,4.27c-10.748-1.694-21.749-2.425-32.699-2.169c-68.666,1.607-129.67,41.168-159.203,103.238
				C2281.329,604.855,2279.546,605.929,2277.668,605.974z"/>
			
				<ellipse transform="matrix(0.7071 -0.7071 0.7071 0.7071 233.3102 1933.1041)" style="opacity:0.78;fill:#FFFFFF;" cx="2450.118" cy="684.922" rx="170.549" ry="170.549"/>
			<g>
				
					<linearGradient id="SVGID_00000095335566870719107760000014535293053163031710_" gradientUnits="userSpaceOnUse" x1="2187.8408" y1="1281.0303" x2="2318.0781" y2="930.7372" gradientTransform="matrix(0.9997 -0.0234 0.0234 0.9997 -66.0834 331.2042)">
					<stop  offset="0" style="stop-color:#FF928E"/>
					<stop  offset="1" style="stop-color:#FE7062"/>
				</linearGradient>
				<path style="fill:url(#SVGID_00000095335566870719107760000014535293053163031710_);" d="M2436.353,812.067l-0.434-18.55
					c-19.356-0.322-38.59-4.438-52.314-10.067c-4.9-2.01-7.5-7.396-6.227-12.537l4.308-17.389c1.581-6.379,8.398-9.819,14.516-7.421
					c13.608,5.334,30.352,9.414,48.294,8.995c18.625-0.436,32.368-7.076,32.064-20.02c-0.273-11.679-11.168-18.373-37.218-24.711
					c-37.171-9.238-64.066-24.718-64.828-57.233c-0.687-29.36,20.255-52.276,57.366-59.144l-0.434-18.552
					c-0.14-5.97,4.586-10.922,10.555-11.062l10.898-0.255c5.97-0.14,10.922,4.586,11.062,10.556l0.39,16.656
					c17.91,0.298,31.007,3.052,41.429,6.443c5.339,1.737,8.367,7.373,7.025,12.826l-3.96,16.082
					c-1.527,6.201-8.033,9.731-14.059,7.612c-9.602-3.376-23.144-6.808-40.635-6.399c-22.099,0.517-28.197,9.819-28.005,18.027
					c0.237,10.102,13.657,16.736,42.592,24.903c41.328,11.351,58.773,27.999,59.49,58.621c0.658,28.096-19.586,53.839-59.846,61.099
					l0.486,20.759c0.14,5.969-4.585,10.922-10.555,11.061l-10.9,0.255C2441.445,822.762,2436.493,818.036,2436.353,812.067z"/>
			</g>
		</g>
		<g>
			<g>
				
					<linearGradient id="SVGID_00000088838847006107915670000006512038805935465374_" gradientUnits="userSpaceOnUse" x1="2215.1255" y1="2427.0405" x2="1607.7532" y2="4443.7529">
					<stop  offset="0" style="stop-color:#4F52FF"/>
					<stop  offset="1" style="stop-color:#4042E2"/>
				</linearGradient>
				<path style="fill:url(#SVGID_00000088838847006107915670000006512038805935465374_);" d="M2074.882,2590.117l-0.29-172.68
					H1917.39l0.291,162.267c0,86.989-27.979,171.671-79.804,241.537l-207.07,279.15c-10.818,14.584-16.659,32.262-16.659,50.421
					v0.123c0,46.741,37.891,84.632,84.631,84.632h596.676c46.74,0,84.632-37.891,84.632-84.632l0,0
					c0-18.235-5.89-35.982-16.792-50.599l-214.552-287.652C2100.788,2748.389,2074.882,2670.326,2074.882,2590.117z"/>
				<path style="fill:#BDD0FB;" d="M1698.779,3214.408c-34.999,0-63.473-28.475-63.473-63.473c0-13.647,4.436-27.076,12.494-37.938
					l207.069-279.151c54.149-72.998,83.969-163.253,83.969-254.142l-0.253-141.109h114.883l0.254,151.558
					c0,84.158,27.722,167.692,78.059,235.181l214.552,287.651c8.121,10.89,12.594,24.367,12.594,37.95
					c0,34.998-28.473,63.473-63.473,63.473H1698.779z"/>
				
					<linearGradient id="SVGID_00000101082892008316469350000009770596490288190394_" gradientUnits="userSpaceOnUse" x1="1888.6281" y1="2419.6667" x2="2103.6152" y2="2419.6667">
					<stop  offset="0" style="stop-color:#4F52FF"/>
					<stop  offset="1" style="stop-color:#4042E2"/>
				</linearGradient>
				<path style="fill:url(#SVGID_00000101082892008316469350000009770596490288190394_);" d="M2079.284,2448.469H1912.96
					c-13.438,0-24.332-10.894-24.332-24.332l0,0c0-12.93,10.114-23.602,23.025-24.296l166.324-8.942
					c13.931-0.75,25.638,10.345,25.638,24.296v8.942C2103.615,2437.575,2092.722,2448.469,2079.284,2448.469z"/>
				<path style="fill:#7D97F4;" d="M1647.801,3112.997c-8.057,10.863-12.494,24.292-12.494,37.939
					c0,34.997,28.473,63.473,63.472,63.473h596.676c35,0,63.473-28.476,63.473-63.473c0-13.583-4.473-27.063-12.593-37.951
					l-95.816-128.46h-507.42L1647.801,3112.997z"/>
			</g>
			<g>
				
					<linearGradient id="SVGID_00000072992440776388477200000008022598243952191165_" gradientUnits="userSpaceOnUse" x1="2416.8643" y1="3025.4121" x2="2737.9646" y2="2524.6765">
					<stop  offset="0" style="stop-color:#4F52FF"/>
					<stop  offset="1" style="stop-color:#4042E2"/>
				</linearGradient>
				<path style="fill:url(#SVGID_00000072992440776388477200000008022598243952191165_);" d="M2452.424,3235.524L2452.424,3235.524
					c-33.097,0-59.927-26.83-59.927-59.927v-428.853h132.963l-13.109,428.853
					C2512.351,3208.694,2485.521,3235.524,2452.424,3235.524z"/>
				
					<linearGradient id="SVGID_00000017515784807445970210000000043767696651381919_" gradientUnits="userSpaceOnUse" x1="2406.5422" y1="2984.1118" x2="2510.9785" y2="2984.1118">
					<stop  offset="0" style="stop-color:#DAE3FE"/>
					<stop  offset="1" style="stop-color:#E9EFFD"/>
				</linearGradient>
				<path style="fill:url(#SVGID_00000017515784807445970210000000043767696651381919_);" d="M2452.424,3221.479
					c-25.299,0-45.882-20.583-45.882-45.882v-428.853h104.436l-12.673,428.638v0.215
					C2498.305,3200.896,2477.722,3221.479,2452.424,3221.479z"/>
				
					<linearGradient id="SVGID_00000069370837843988420240000003445470468534428298_" gradientUnits="userSpaceOnUse" x1="2370.9607" y1="2733.7112" x2="2545.1238" y2="2733.7112">
					<stop  offset="0" style="stop-color:#4F52FF"/>
					<stop  offset="1" style="stop-color:#4042E2"/>
				</linearGradient>
				<path style="fill:url(#SVGID_00000069370837843988420240000003445470468534428298_);" d="M2525.413,2757.045h-134.742
					c-10.886,0-19.71-8.826-19.71-19.712l0,0c0-10.475,8.193-19.12,18.652-19.683l134.741-7.244
					c11.285-0.607,20.77,8.381,20.77,19.682v7.244C2545.124,2748.219,2536.298,2757.045,2525.413,2757.045z"/>
				<path style="fill:#7D97F4;" d="M2406.542,2942.444v233.153c0,25.299,20.583,45.882,45.882,45.882
					c25.299,0,45.882-20.583,45.882-45.882v-0.215l6.886-232.938H2406.542z"/>
			</g>
			<g>
				
					<linearGradient id="SVGID_00000063601222044267389620000007057534516621925003_" gradientUnits="userSpaceOnUse" x1="2244.4844" y1="3005.6147" x2="2610.4929" y2="2585.7156">
					<stop  offset="0" style="stop-color:#4F52FF"/>
					<stop  offset="1" style="stop-color:#4042E2"/>
				</linearGradient>
				<path style="fill:url(#SVGID_00000063601222044267389620000007057534516621925003_);" d="M2269.713,3239.799L2269.713,3239.799
					c-33.097,0-59.927-26.83-59.927-59.927v-428.853h132.963l-13.109,428.853C2329.64,3212.969,2302.81,3239.799,2269.713,3239.799z
					"/>
				
					<linearGradient id="SVGID_00000055665581579757159060000008792687088166971323_" gradientUnits="userSpaceOnUse" x1="2223.8313" y1="2988.386" x2="2328.2678" y2="2988.386">
					<stop  offset="0" style="stop-color:#DAE3FE"/>
					<stop  offset="1" style="stop-color:#E9EFFD"/>
				</linearGradient>
				<path style="fill:url(#SVGID_00000055665581579757159060000008792687088166971323_);" d="M2269.713,3225.753
					c-25.3,0-45.882-20.583-45.882-45.882v-428.853h104.437l-12.673,428.638v0.215
					C2315.595,3205.171,2295.012,3225.753,2269.713,3225.753z"/>
				
					<linearGradient id="SVGID_00000182494316268072478480000015811633801306228668_" gradientUnits="userSpaceOnUse" x1="2188.2495" y1="2737.9849" x2="2362.4121" y2="2737.9849">
					<stop  offset="0" style="stop-color:#4F52FF"/>
					<stop  offset="1" style="stop-color:#4042E2"/>
				</linearGradient>
				<path style="fill:url(#SVGID_00000182494316268072478480000015811633801306228668_);" d="M2342.701,2761.318h-134.741
					c-10.886,0-19.711-8.825-19.711-19.711l0,0c0-10.474,8.193-19.12,18.653-19.682l134.741-7.245
					c11.285-0.606,20.769,8.381,20.769,19.683v7.244C2362.412,2752.493,2353.588,2761.318,2342.701,2761.318z"/>
				<path style="fill:#7D97F4;" d="M2223.831,2946.718v233.154c0,25.3,20.582,45.882,45.882,45.882
					c25.299,0,45.882-20.583,45.882-45.882v-0.215l6.887-232.939H2223.831z"/>
			</g>
		</g>
		<g>
			
				<linearGradient id="SVGID_00000155828641730647640640000005972618600621919411_" gradientUnits="userSpaceOnUse" x1="-4095.0999" y1="1951.821" x2="-3683.3833" y2="1951.821" gradientTransform="matrix(-1 0 0 1 -1008.4772 0)">
				<stop  offset="0" style="stop-color:#09005D"/>
				<stop  offset="1" style="stop-color:#1A0F91"/>
			</linearGradient>
			<path style="fill:url(#SVGID_00000155828641730647640640000005972618600621919411_);" d="M2711.137,1803.961
				c0,0,0.257,0.172,0.472,0.515l1.985,0.086c0.214,0.299,2.371,0.814,2.371,1.415v0.042l-1.899,0.644
				c0,0.643-0.885,1.458-0.713,2.358l-0.443,0.385c2.229,13.205,14.334,49.347,27.582,96.122c0.129,0.386,0.093,0.815,0.221,1.202
				c29.711,104.954,72.61,262.924,85.558,336.067c0,0,22.919,11.369,58.59,17.003h0.086c51.534,11.268,129.306,21.583,201.677,2.633
				c0,0-50.278-306.256-97.396-581.333c0,0-34.44-41.991-167.862-50.394c-0.686-0.043-1.372,2.344-2.058,2.301
				c-10.761-0.601-21.565,1.444-32.369,1.444h-8.575c-1.2,0-2.358,0-3.559,0h-0.214c-5.531,0-15.52,1.945-27.182,6.875
				c-0.343,0.129-1.029-1.085-1.029-0.913c0,0-0.086-1.014-0.129-1.014c0,0-2.015,0.902-2.915,1.289
				c-1.329,0.557-2.701,1.121-4.116,1.807c-0.3,0.172-0.643,0.303-0.943,0.432c-0.129,0.086-0.3,0.108-0.429,0.194
				c-0.9,0.472-1.844,0.934-2.83,1.405c-0.214,0.086-0.386,0.167-0.557,0.252c-1.115,0.557-2.229,1.155-3.387,1.755
				c-0.172,0.086,0.729,0.171,0.557,0.299c-1.329,0.686-3.044,1.415-4.416,2.143c-1.243,0.643-2.187,1.329-2.272,2.057l-0.171-1.115
				c-0.643,0.343-1.329,0.728-1.972,1.115c0,0-0.129,0.043-0.172,0.086c-7.117,4.159-14.277,9.004-20.922,14.663
				c-0.043,0.043-0.043,0.086-0.086,0.129c-0.086,0.129-0.215,0.3-0.3,0.429C2671.436,1715.985,2657.545,1797.317,2711.137,1803.961
				z"/>
			<g>
				<path style="fill:#7D97F4;" d="M2398.907,1886.243c134.473-14.23,197.597-117.824,247.576-183.705
					c65.987-86.98,138.841-71.952,138.841-71.952l-44.589,191.923c-99.77,158.979-242.479,166.539-338.411,148.367
					C2392.527,1938.593,2394.146,1909.022,2398.907,1886.243z"/>
				<path style="fill:#7D97F4;" d="M2196.927,1856.322l48.925,11.937c59.622,17.958,109.988,22.542,153.055,17.984
					c-4.761,22.78-6.38,52.35,3.416,84.634c-61.067-11.566-103.185-33.556-103.185-33.556
					C2186.836,1904.622,2196.927,1856.322,2196.927,1856.322z"/>
			</g>
			
				<linearGradient id="SVGID_00000054263261098692780560000012392116000030059170_" gradientUnits="userSpaceOnUse" x1="-3844.884" y1="2576.8801" x2="-4459.0205" y2="3362.614" gradientTransform="matrix(-0.9678 0.2516 0.2516 0.9678 -2427.1482 216.9008)">
				<stop  offset="0" style="stop-color:#FEBBBA"/>
				<stop  offset="1" style="stop-color:#FF928E"/>
			</linearGradient>
			<path style="fill:url(#SVGID_00000054263261098692780560000012392116000030059170_);" d="M2086.211,1949.677
				c0.376-9.932,5.249-19.154,13.241-25.063l77.998-57.675c0,0-1.59-11.513-23.282-13.978
				c-21.694-2.464-22.825-25.747-22.825-25.747s30.135,5.285,74.643,14.521c25.452,5.282,43.225,21.674,53.788,34.743
				l-14.757,35.318c-49.492,30.086-103.013,47.292-159.463,55.14L2086.211,1949.677z"/>
			
				<linearGradient id="SVGID_00000183240265548714325350000014080027032361387148_" gradientUnits="userSpaceOnUse" x1="-3783.4097" y1="1629.4878" x2="-3781.7375" y2="1629.4878" gradientTransform="matrix(-1 0 0 1 -1008.4772 0)">
				<stop  offset="0" style="stop-color:#09005D"/>
				<stop  offset="1" style="stop-color:#1A0F91"/>
			</linearGradient>
			<path style="fill:url(#SVGID_00000183240265548714325350000014080027032361387148_);" d="M2773.26,1629.552
				c0.471-0.043,0.9-0.043,1.329-0.043c0.129-0.043,0.214-0.043,0.343-0.086L2773.26,1629.552z"/>
			
				<linearGradient id="SVGID_00000008117072347312575350000011191277837462445186_" gradientUnits="userSpaceOnUse" x1="-3758.3455" y1="1628.1023" x2="-3758.4766" y2="1628.3058" gradientTransform="matrix(-1 0 0 1 -1008.4772 0)">
				<stop  offset="0" style="stop-color:#53EAC9"/>
				<stop  offset="0.9964" style="stop-color:#45AED8"/>
			</linearGradient>
			<path style="fill:url(#SVGID_00000008117072347312575350000011191277837462445186_);" d="M2749.767,1627.88c0,0,0,0.042,0,0.128
				C2749.767,1627.922,2749.767,1627.88,2749.767,1627.88z"/>
			
				<linearGradient id="SVGID_00000008865500144935570020000000857247322544100240_" gradientUnits="userSpaceOnUse" x1="-3754.9653" y1="1628.3542" x2="-3755.1665" y2="1628.6669" gradientTransform="matrix(-1 0 0 1 -1008.4772 0)">
				<stop  offset="0" style="stop-color:#53EAC9"/>
				<stop  offset="0.9964" style="stop-color:#45AED8"/>
			</linearGradient>
			<path style="fill:url(#SVGID_00000008865500144935570020000000857247322544100240_);" d="M2746.207,1628.094l0.171,0.086v-0.172
				C2746.336,1628.052,2746.293,1628.094,2746.207,1628.094z"/>
			
				<linearGradient id="SVGID_00000080178106959249619940000016211739826543463323_" gradientUnits="userSpaceOnUse" x1="2617.4321" y1="1966.3191" x2="2667.9524" y2="2602.8721">
				<stop  offset="0" style="stop-color:#09005D"/>
				<stop  offset="1" style="stop-color:#1A0F91"/>
			</linearGradient>
			<path style="fill:url(#SVGID_00000080178106959249619940000016211739826543463323_);" d="M2825.066,3125.104
				c0,0,6.98,39.518,10.403,78.637c1.338,15.288-10.45,28.563-25.783,29.202c-52.094,2.169-163.527,6.388-203.513,4.604
				c-6.011-0.268-9.942-6.422-7.717-12.013l0,0c1.864-4.684,5.459-8.471,10.041-10.577l184.066-84.596L2825.066,3125.104z"/>
			
				<linearGradient id="SVGID_00000062895215003638749470000005340925342327392898_" gradientUnits="userSpaceOnUse" x1="-3839.2615" y1="3124.9409" x2="-3779.3899" y2="3124.9409" gradientTransform="matrix(-1 0 0 1 -1008.4772 0)">
				<stop  offset="0" style="stop-color:#FEBBBA"/>
				<stop  offset="1" style="stop-color:#FF928E"/>
			</linearGradient>
			<path style="fill:url(#SVGID_00000062895215003638749470000005340925342327392898_);" d="M2830.784,3101.885l-5.608,47.269
				c0,0-32.243,15.01-54.263-1.891l13.353-52.678L2830.784,3101.885z"/>
			
				<linearGradient id="SVGID_00000070832069933478667440000004062002300936716981_" gradientUnits="userSpaceOnUse" x1="-3567.4036" y1="2241.3496" x2="-4140.9497" y2="3018.7175" gradientTransform="matrix(-1 0 0 1 -1008.4772 0)">
				<stop  offset="0" style="stop-color:#09005D"/>
				<stop  offset="1" style="stop-color:#1A0F91"/>
			</linearGradient>
			<path style="fill:url(#SVGID_00000070832069933478667440000004062002300936716981_);" d="M2826.57,2213.214
				c2.422,12.344,13.003,615.994-51.523,886.511c-1.053,4.414,1.185,8.964,5.386,10.681c9.897,4.043,29.299,9.898,52.551,10.68
				c7.201,0.241,13.657-4.438,15.688-11.35c18.444-62.764,106.827-377.23,118.357-677.629c12.884-335.667,0-11.429,0-11.429
				l-7.555-207.49L2826.57,2213.214z"/>
			
				<linearGradient id="SVGID_00000056407836807322701210000012293351239338111391_" gradientUnits="userSpaceOnUse" x1="3602.8076" y1="2157.6719" x2="3299.6875" y2="2698.2366">
				<stop  offset="0" style="stop-color:#09005D"/>
				<stop  offset="1" style="stop-color:#1A0F91"/>
			</linearGradient>
			<path style="fill:url(#SVGID_00000056407836807322701210000012293351239338111391_);" d="M3036.802,3145.72
				c0,0,11.111,19.95,21.869,72.962c1.943,9.574-4.746,18.738-14.469,19.693c-17.201,1.691-43.684,3.866-64.896,3.721
				c-9.778-0.067-17.41-8.582-16.231-18.289c2.35-19.35,9.67-51.097,32.283-75.842L3036.802,3145.72z"/>
			
				<linearGradient id="SVGID_00000124132450400192302130000005126689236433793172_" gradientUnits="userSpaceOnUse" x1="-4055.0388" y1="3121.8706" x2="-4003.345" y2="3121.8706" gradientTransform="matrix(-1 0 0 1 -1008.4772 0)">
				<stop  offset="0" style="stop-color:#FEBBBA"/>
				<stop  offset="1" style="stop-color:#FF928E"/>
			</linearGradient>
			<path style="fill:url(#SVGID_00000124132450400192302130000005126689236433793172_);" d="M3046.562,3084.922l-13.104,71.482
				c0,0-12.958,9.638-38.59,2.651l6.255-76.911L3046.562,3084.922z"/>
			
				<linearGradient id="SVGID_00000117644327015182967760000010824505824794342042_" gradientUnits="userSpaceOnUse" x1="-3669.623" y1="2165.9309" x2="-4243.1689" y2="2943.2986" gradientTransform="matrix(-1 0 0 1 -1008.4772 0)">
				<stop  offset="0" style="stop-color:#09005D"/>
				<stop  offset="1" style="stop-color:#1A0F91"/>
			</linearGradient>
			<path style="fill:url(#SVGID_00000117644327015182967760000010824505824794342042_);" d="M3081.964,2231.738
				c52.774,318.492-11.447,787.177-33.106,878.91c-1.327,5.616-5.859,9.919-11.552,10.862c-9.668,1.604-25.585,2.911-41.276-1.647
				c-5.407-1.571-9.205-6.447-9.426-12.073c-2.906-74.164,2.324-529.455-46.848-709.388c-2.493-9.119-8.06-17.072-15.765-22.55
				l-95.44-67.85l-7.317-109.674L3081.964,2231.738z"/>
			<path style="fill:#91B3FA;" d="M3017.685,1822.922l60.66-153.138c0,0,147.723,100.372,172.016,227.631
				c-27.912,2.056-78.703,9.316-128.418,34.419C3111.019,1871.743,3017.685,1822.922,3017.685,1822.922z"/>
			
				<linearGradient id="SVGID_00000171715938447344854480000016694585445782611608_" gradientUnits="userSpaceOnUse" x1="-4119.6289" y1="1700.3943" x2="-4046.7437" y2="1661.808" gradientTransform="matrix(-1 0 0 1 -1008.4772 0)">
				<stop  offset="0" style="stop-color:#FEBBBA"/>
				<stop  offset="1" style="stop-color:#FF928E"/>
			</linearGradient>
			<path style="fill:url(#SVGID_00000171715938447344854480000016694585445782611608_);" d="M2905.885,1499.863l50.322,145.527
				c0.833,2.41-0.157,5.08-2.39,6.315c-13.717,7.583-63.138,29.506-122.693-8.254c-6.204-3.933-10.427-10.348-11.37-17.634
				l-16.295-125.953H2905.885z"/>
			<path style="fill:#91B3FA;" d="M3001.391,1653.401l-60.048-50.997l-89.828,219.308l65.506,871.471l204.524,6.117
				c1.446,0.043,2.846-0.514,3.867-1.539c1.021-1.025,1.573-2.427,1.523-3.873l-28.554-838.403c0,0-0.783-181.168-20.036-185.701
				C3059.091,1665.251,3001.391,1653.401,3001.391,1653.401z"/>
			<path style="fill:#7D97F4;" d="M2715.599,1804.562l0.365,1.415v0.042l-1.899,0.644l-0.713,2.358l4.192,0.385l20.956,173.038
				c0,0.043,0,0.043,0,0.086l66.792,721.946c0.171,1.458-1.631,2.744-0.517,3.645c1.115,0.857,1.328,1.243,2.743,1.029
				l110.12-15.949l-32.445-433.366l-0.188-0.643l-32.565-448.757l-29.435-180.198v-0.086l-5.451-27.739l-30.208,26.153l-0.677,0.043
				l-8.634,0.471l-3.567,0.172c-5.487,1.458-28.032,9.947-28.032,9.947c0,0.129-7.875,3.516-11.648,5.316
				c-0.214,0.086-0.272,0.172-0.443,0.258c-1.115,0.557-2.172,1.158-3.33,1.757c-0.171,0.086,0.83,0.172,0.659,0.3
				c-2.315,1.287-4.443,2.701-4.443,4.202v0.086l-11.267,152.844v0.515L2715.599,1804.562z"/>
			
				<linearGradient id="SVGID_00000100359916140236868470000007231453193056011931_" gradientUnits="userSpaceOnUse" x1="-3836.741" y1="1864.449" x2="-3558.0703" y2="1663.8989" gradientTransform="matrix(-1 0 0 1 -1008.4772 0)">
				<stop  offset="0" style="stop-color:#9CFFFB"/>
				<stop  offset="1" style="stop-color:#9BFFFA"/>
			</linearGradient>
			<polygon style="fill:url(#SVGID_00000100359916140236868470000007231453193056011931_);" points="2817.372,1819.934 
				2817.372,1841.264 2738.499,1836.525 2738.499,1812.824 			"/>
			
				<linearGradient id="SVGID_00000021080962335546220810000005261611920775696023_" gradientUnits="userSpaceOnUse" x1="-3962.8613" y1="1796.33" x2="-3926.73" y2="1770.3274" gradientTransform="matrix(-1 0 0 1 -1008.4772 0)">
				<stop  offset="0" style="stop-color:#DAE3FE"/>
				<stop  offset="1" style="stop-color:#E9EFFD"/>
			</linearGradient>
			<path style="fill:url(#SVGID_00000021080962335546220810000005261611920775696023_);" d="M2856.36,1872.178
				c0.341,0,0.689-0.082,1.011-0.255l69.019-37.064c0.596-0.32,1.007-0.904,1.107-1.574l9.456-63.651l25.178-4.469
				c0.791-0.14,1.438-0.712,1.675-1.48l26.629-86.505c0.347-1.13-0.287-2.33-1.419-2.68c-1.137-0.354-2.33,0.291-2.68,1.419
				l-26.243,85.253l-25.408,4.511c-0.906,0.161-1.61,0.883-1.746,1.796l-9.523,64.111l-68.07,36.556
				c-1.044,0.559-1.436,1.859-0.875,2.901C2854.856,1871.769,2855.595,1872.178,2856.36,1872.178z"/>
			
				<linearGradient id="SVGID_00000116950228865899427060000001907256152534428067_" gradientUnits="userSpaceOnUse" x1="-3850.0466" y1="1738.9216" x2="-3786.3372" y2="1738.9216" gradientTransform="matrix(-1 0 0 1 -1008.4772 0)">
				<stop  offset="0" style="stop-color:#DAE3FE"/>
				<stop  offset="1" style="stop-color:#E9EFFD"/>
			</linearGradient>
			<path style="fill:url(#SVGID_00000116950228865899427060000001907256152534428067_);" d="M2839.964,1850.871
				c0.27,0,0.542-0.067,0.795-0.212c0.771-0.44,1.038-1.421,0.599-2.194l-36.221-63.492l5.979-35.877
				c0.113-0.68-0.222-1.359-0.831-1.683l-29.139-15.506l7.405-103.215c0.063-0.885-0.603-1.656-1.489-1.719
				c-0.904-0.033-1.656,0.603-1.719,1.489l-7.48,104.257c-0.046,0.634,0.287,1.235,0.848,1.534l29.042,15.456l-5.883,35.299
				c-0.061,0.364,0.006,0.739,0.19,1.061l36.503,63.99C2838.863,1850.58,2839.405,1850.871,2839.964,1850.871z"/>
			<g>
				<path style="fill:#91B3FA;" d="M2888.408,1962.534c0,0,165.854,93.734,221.817,13.696
					c11.619-16.619,14.397-33.136,11.534-48.882c49.715-25.102,100.507-32.363,128.418-34.418
					c7.324,38.364,3.453,79.168-19.092,120.407c-98.027,179.318-364.628-9.91-364.628-9.91L2888.408,1962.534z"/>
				<g>
					
						<linearGradient id="SVGID_00000103966043033318559440000015044906281251721600_" gradientUnits="userSpaceOnUse" x1="3250.0149" y1="1173.1824" x2="3093.4026" y2="1385.3666">
						<stop  offset="0" style="stop-color:#09005D"/>
						<stop  offset="1" style="stop-color:#1A0F91"/>
					</linearGradient>
					<path style="fill:url(#SVGID_00000103966043033318559440000015044906281251721600_);" d="M2908.335,2081.117l-90.518-316.108
						c-1.027-3.588-4.088-6.206-7.796-6.638c-16.4-1.913-63.921-7.286-118.79-11.926c-66.091-5.591-142.842-10.121-188.706-6.267
						c-6.52,0.547-10.46,7.444-7.561,13.311c26.081,52.765,133.362,267.401,187.085,337.713c1.78,2.329,4.532,3.691,7.463,3.664
						l210.017-1.954C2905.641,2092.855,2910.017,2086.992,2908.335,2081.117z"/>
					
						<linearGradient id="SVGID_00000119091912682343772060000017305214140706259864_" gradientUnits="userSpaceOnUse" x1="-3624.5664" y1="1576.7374" x2="-3669.8967" y2="1775.7964" gradientTransform="matrix(-1 0 0 1 -1008.4772 0)">
						<stop  offset="0" style="stop-color:#4F52FF"/>
						<stop  offset="1" style="stop-color:#4042E2"/>
					</linearGradient>
					<path style="fill:url(#SVGID_00000119091912682343772060000017305214140706259864_);" d="M2681.842,1719.039l-65.627-10.935
						c-3.495-0.581-6.358,2.758-5.248,6.122l6.497,19.687c0.565,1.713,2.06,2.954,3.849,3.193l63.153,8.436
						c3.267,0.436,5.961-2.533,5.209-5.742l-4.021-17.188C2685.221,1720.761,2683.718,1719.351,2681.842,1719.039z"/>
					
						<linearGradient id="SVGID_00000114032936446199461490000010888999117121354910_" gradientUnits="userSpaceOnUse" x1="-3648.2903" y1="1660.2361" x2="-3669.97" y2="1790.3147" gradientTransform="matrix(-1 0 0 1 -1008.4772 0)">
						<stop  offset="0" style="stop-color:#4F52FF"/>
						<stop  offset="1" style="stop-color:#4042E2"/>
					</linearGradient>
					<path style="fill:url(#SVGID_00000114032936446199461490000010888999117121354910_);" d="M2730.982,1774.598l-5.407-28.161
						c-0.542-2.825-2.874-4.959-5.735-5.25l-132.551-13.451c-4.462-0.452-8.035,3.636-6.988,7.997l8.428,35.091
						c0.674,2.807,3.117,4.835,6.002,4.981l129.529,6.52C2728.478,1782.538,2731.778,1778.743,2730.982,1774.598z"/>
					
						<linearGradient id="SVGID_00000183959368437577267510000007806316534242479503_" gradientUnits="userSpaceOnUse" x1="-3903.675" y1="1951.1508" x2="-3783.0818" y2="1951.1508" gradientTransform="matrix(-1 0 0 1 -1008.4772 0)">
						<stop  offset="0" style="stop-color:#FEBBBA"/>
						<stop  offset="1" style="stop-color:#FF928E"/>
					</linearGradient>
					<path style="fill:url(#SVGID_00000183959368437577267510000007806316534242479503_);" d="M2886.466,2004.745
						c0,0,12.609-51.849,7.523-70.244c-5.086-18.395-14.941-42.045-47.789-36.79c-32.848,5.256-71.596,19.093-71.596,19.093
						s1.957,23.96,26.922,16.23l-15.481,11.979c0,0,2.213,19.185,23.3,8.936l-14.398,15.886c0,0,9.056,15.756,24.57,5.65
						C2835.032,1965.379,2842.469,2010.989,2886.466,2004.745z"/>
				</g>
			</g>
			<path style="fill:#7D97F4;" d="M3044.536,2009.073c15.41,0,29.553-2.278,40.317-8.185c1.038-0.571,1.417-1.874,0.848-2.912
				c-0.569-1.036-1.874-1.413-2.912-0.848c-44.194,24.263-153.279-17.279-154.376-17.704c-0.293-0.1-21.497-7.465-29.069-22.251
				c-0.54-1.051-1.825-1.47-2.885-0.929c-1.053,0.538-1.469,1.83-0.929,2.885c8.37,16.345,30.487,24.01,31.425,24.328
				C2930.377,1984.775,2994.199,2009.073,3044.536,2009.073z"/>
			<path style="fill:#7D97F4;" d="M3104.356,2090.786c1.149,0,2.1-0.011,2.139-1.169c0.042-1.183-0.885-1.725-2.068-1.764
				c-125.958-4.337-197.653-61.772-198.363-62.354c-0.915-0.756-2.265-0.503-3.017,0.412c-0.75,0.915-0.618,1.421,0.299,2.173
				c0.72,0.59,73.54,62.702,200.934,62.702H3104.356z"/>
			<g>
				
					<linearGradient id="SVGID_00000110463762171718962960000011582945741107975052_" gradientUnits="userSpaceOnUse" x1="-7808.8271" y1="2016.9187" x2="-8017.7002" y2="2176.7388" gradientTransform="matrix(-0.9899 0.1417 0.1417 0.9899 -5239.8506 546.1045)">
					<stop  offset="0" style="stop-color:#FEBBBA"/>
					<stop  offset="1" style="stop-color:#FF928E"/>
				</linearGradient>
				<path style="fill:url(#SVGID_00000110463762171718962960000011582945741107975052_);" d="M2773.02,1361.919
					c0,0-24.279,88.263-20.467,132.22c3.812,43.957-1.535,73.599,50.146,75.164c51.68,1.565,90.563-29.633,107.36-76.366
					c0,0,26.477-72.097,14.465-98.351C2912.512,1368.331,2773.02,1361.919,2773.02,1361.919z"/>
				
					<linearGradient id="SVGID_00000160159498206940263090000000424366778245130373_" gradientUnits="userSpaceOnUse" x1="4634.1987" y1="1794.0193" x2="5015.335" y2="2284.7319" gradientTransform="matrix(0.9899 -0.1417 0.1417 0.9899 -2138.0627 101.783)">
					<stop  offset="0" style="stop-color:#09005D"/>
					<stop  offset="1" style="stop-color:#1A0F91"/>
				</linearGradient>
				<path style="fill:url(#SVGID_00000160159498206940263090000000424366778245130373_);" d="M2978.973,1366.825
					c-11.006-6.854-18.168-4.488-22.36-1.031c-1.181,0.973-2.631,1.001-3.8,0.429c-0.115-1.304-8.469-91.523-131.454-75.652
					c-12.776,1.649-25.294-4.599-31.657-15.8c-14.545-25.608-42.126-63.258-62.958-26.471
					c-29.631,52.328-38.419,120.992,45.506,135.226c4.965,0.842,9.976,1.513,15.008,2.051c34.646,8.545,74.109,11.234,88.734,14.923
					c24.432,6.161,5.764,63.004,5.764,63.004l6.375-0.912l13.587-1.945c1.974-0.283,3.891,1.949,4.052,3.937l3.156,38.836
					c0.135,1.676,1.458,3.187,3.129,3.369c6.21,0.675,22.324,0.067,47.097-18.112c24.218-17.771,12.602-26.79,5.18-30.239
					c-2.107-0.979-2.515-3.73-0.944-5.441C2996.452,1416.984,2998.113,1378.745,2978.973,1366.825z"/>
				
					<linearGradient id="SVGID_00000025431187681680855520000010404406341646214063_" gradientUnits="userSpaceOnUse" x1="-7834.7354" y1="1983.0598" x2="-8043.6099" y2="2142.8806" gradientTransform="matrix(-0.9899 0.1417 0.1417 0.9899 -5239.8506 546.1045)">
					<stop  offset="0" style="stop-color:#FEBBBA"/>
					<stop  offset="1" style="stop-color:#FF928E"/>
				</linearGradient>
				<path style="fill:url(#SVGID_00000025431187681680855520000010404406341646214063_);" d="M2887.932,1472.367
					c0,0,6.203-55.05,32.128-43.574c25.926,11.476-3.837,61.235-22.684,65.959L2887.932,1472.367z"/>
				<path style="fill:#91B3FA;" d="M2750.463,1366.875c0.42-0.06,0.814-0.275,1.101-0.634c0.586-0.739,0.459-1.814-0.283-2.404
					c-17.675-13.981-27.385-30.149-28.856-48.052c-2.562-31.133,20.881-57.328,21.117-57.588c0.635-0.702,0.586-1.782-0.113-2.418
					c-0.706-0.638-1.788-0.584-2.417,0.113c-1.009,1.11-24.668,27.515-22,60.145c1.547,18.899,11.691,35.882,30.149,50.484
					C2749.541,1366.828,2750.016,1366.939,2750.463,1366.875z"/>
			</g>
			
				<linearGradient id="SVGID_00000165192643908159563470000010743790992176747454_" gradientUnits="userSpaceOnUse" x1="-3758.3455" y1="1628.1023" x2="-3758.4766" y2="1628.3058" gradientTransform="matrix(-1 0 0 1 -1008.4772 0)">
				<stop  offset="0" style="stop-color:#53EAC9"/>
				<stop  offset="0.9964" style="stop-color:#45AED8"/>
			</linearGradient>
			<path style="fill:url(#SVGID_00000165192643908159563470000010743790992176747454_);" d="M2749.767,1627.88c0,0,0,0.042,0,0.128
				C2749.767,1627.922,2749.767,1627.88,2749.767,1627.88z"/>
		</g>
		<g>
			
				<linearGradient id="SVGID_00000001635183677108057550000012652500584876601791_" gradientUnits="userSpaceOnUse" x1="2830.0115" y1="1566.9083" x2="3179.5857" y2="1161.1531" gradientTransform="matrix(0.9899 -0.1418 0.1418 0.9899 -589.006 213.1215)">
				<stop  offset="0" style="stop-color:#FF928E"/>
				<stop  offset="1" style="stop-color:#FE7062"/>
			</linearGradient>
			
				<circle style="fill:url(#SVGID_00000001635183677108057550000012652500584876601791_);" cx="2728.945" cy="902.567" r="260.622"/>
			
				<linearGradient id="SVGID_00000050643221726742714310000012729450054273669818_" gradientUnits="userSpaceOnUse" x1="3377.1179" y1="865.2096" x2="2343.4177" y2="2426.8357" gradientTransform="matrix(0.9899 -0.1418 0.1418 0.9899 -589.006 213.1215)">
				<stop  offset="0" style="stop-color:#FF928E"/>
				<stop  offset="1" style="stop-color:#FE7062"/>
			</linearGradient>
			
				<circle style="fill:url(#SVGID_00000050643221726742714310000012729450054273669818_);" cx="2728.945" cy="902.567" r="251.956"/>
			<path style="fill:#FFFFFF;" d="M2509.104,833.088c-0.705,0.101-1.444,0.044-2.166-0.2c-2.462-0.83-3.784-3.5-2.953-5.958
				c28.804-85.451,102.107-146.47,191.305-159.25c14.233-2.039,28.672-2.799,42.917-2.256c2.596,0.097,4.622,2.28,4.523,4.878
				c-0.099,2.594-2.262,4.631-4.879,4.518c-13.682-0.517-27.553,0.212-41.226,2.171c-85.663,12.274-156.062,70.877-183.727,152.94
				C2512.312,831.672,2510.807,832.844,2509.104,833.088z"/>
			
				<ellipse transform="matrix(0.7071 -0.7071 0.7071 0.7071 159.6056 2199.7681)" style="opacity:0.78;fill:#FFFFFF;" cx="2735.158" cy="907.223" rx="213.25" ry="213.25"/>
			<g>
				
					<linearGradient id="SVGID_00000085953085455367595430000002305003855403798689_" gradientUnits="userSpaceOnUse" x1="3424.6233" y1="20.0493" x2="3368.4885" y2="298.477" gradientTransform="matrix(0.9899 -0.1418 0.1418 0.9899 -589.006 213.1215)">
					<stop  offset="0" style="stop-color:#FF928E"/>
					<stop  offset="1" style="stop-color:#FE7062"/>
				</linearGradient>
				<path style="fill:url(#SVGID_00000085953085455367595430000002305003855403798689_);" d="M2736.927,1067.121l-3.29-22.966
					c-24.079,2.471-48.569,0.214-66.442-4.739c-6.382-1.768-10.41-8.07-9.591-14.642l2.769-22.228
					c1.016-8.154,8.969-13.436,16.921-11.366c17.687,4.603,39.08,7.185,61.293,4.003c23.06-3.304,39.136-13.586,36.84-29.611
					c-2.072-14.46-16.591-21.154-49.873-25.159c-47.52-5.955-83.208-21.185-88.976-61.442c-5.208-36.35,17.395-67.907,62.449-81.94
					l-3.291-22.968c-1.059-7.39,4.074-14.24,11.465-15.298l13.493-1.933c7.391-1.059,14.24,4.073,15.299,11.464l2.954,20.622
					c22.281-2.288,38.95-0.81,52.392,1.854c6.887,1.364,11.482,7.914,10.624,14.882l-2.531,20.553
					c-0.976,7.926-8.531,13.273-16.325,11.537c-12.421-2.768-29.744-5.02-51.398-1.918c-27.36,3.92-33.551,16.374-32.095,26.536
					c1.792,12.507,19.439,18.753,56.573,24.602c52.994,7.963,77.122,26.044,82.554,63.956c4.984,34.784-16.33,69.748-65.238,84.734
					l3.682,25.702c1.059,7.391-4.074,14.24-11.464,15.299l-13.495,1.933C2744.836,1079.644,2737.987,1074.511,2736.927,1067.121z"/>
			</g>
		</g>
	</g>
</g>
</svg>
